<svg width="43" height="43" viewBox="0 0 43 43" fill="none" xmlns="http://www.w3.org/2000/svg">
<g clip-path="url(#clip0_95_8873)">
<path d="M35.4144 20.0155C34.9824 16.9071 33.5404 14.0269 31.3105 11.8186C29.0806 9.61035 26.1864 8.19652 23.0739 7.79491C19.9614 7.39329 16.8032 8.02618 14.0857 9.59607C11.3683 11.166 9.24241 13.5858 8.03553 16.4828M7.15234 9.41723V16.4828H14.2179" stroke="#FEFEFE" stroke-width="2.11966" stroke-linecap="round" stroke-linejoin="round"/>
<path d="M7.15234 23.5483C7.58433 26.6568 9.02635 29.537 11.2563 31.7452C13.4862 33.9535 16.3803 35.3673 19.4929 35.769C22.6054 36.1706 25.7636 35.5377 28.481 33.9678C31.1985 32.3979 33.3244 29.9781 34.5312 27.0811M35.4144 34.1466V27.0811H28.3489" stroke="#FEFEFE" stroke-width="2.11966" stroke-linecap="round" stroke-linejoin="round"/>
</g>
<defs>
<clipPath id="clip0_95_8873">
<rect width="42.3931" height="42.3931" fill="white" transform="translate(0.0859375 0.585449)"/>
</clipPath>
</defs>
</svg>
