<svg width="66" height="66" viewBox="0 0 66 66" fill="none" xmlns="http://www.w3.org/2000/svg">
<path d="M36.2037 32.9818C36.2037 37.0288 35.9667 40.7184 35.6097 43.1236C35.6041 43.1296 35.5904 43.1896 35.5696 43.2908L35.4316 43.98C35.2528 44.8599 34.9623 46.1817 34.6557 46.7737C33.7827 48.458 32.0757 49.5 30.2487 49.5H30.0897C28.8988 49.4606 26.3968 48.4155 26.3968 48.3792C22.1878 46.6132 13.8899 41.1213 10.554 37.4711L10.4306 37.3462C10.1617 37.0712 9.52132 36.4021 9.20399 35.9474C8.568 35.1053 8.25 34.0632 8.25 33.0212C8.25 31.858 8.607 30.7766 9.28199 29.8921C9.44099 29.7315 10.035 29.053 10.593 28.4895C13.8479 24.9605 22.3468 19.1899 26.7928 17.4239C27.4678 17.1422 29.1747 16.5424 30.0897 16.5C30.9627 16.5 31.7967 16.703 32.5917 17.1028C33.5847 17.6632 34.3767 18.5477 34.8147 19.5898C35.0937 20.3107 35.5317 22.4766 35.5317 22.516C35.9667 24.8818 36.2037 28.7288 36.2037 32.9818ZM57.75 33.0012C57.75 35.3064 55.899 37.1754 53.6161 37.1754L43.4432 36.2758C41.6522 36.2758 40.2002 34.8096 40.2002 33.0012C40.2002 31.1898 41.6522 29.7267 43.4432 29.7267L53.6161 28.827C55.899 28.827 57.75 30.696 57.75 33.0012Z" fill="#4DE6FF"/>
</svg>
