<svg width="172" height="56" viewBox="0 0 172 56" fill="none" xmlns="http://www.w3.org/2000/svg">
<rect width="172" height="56" rx="4" fill="#008080"/>
<path d="M55.232 34L48.56 22.48H50.8L56.128 31.744L61.472 22.48H63.696L57.024 34H55.232ZM64.957 34V24.72H66.861V34H64.957ZM64.957 23.6V21.68H66.861V23.6H64.957ZM70.6631 34C70.2685 34 69.9111 33.904 69.5911 33.712C69.2711 33.5093 69.0098 33.248 68.8071 32.928C68.6151 32.608 68.5191 32.2507 68.5191 31.856V26.864C68.5191 26.4693 68.6151 26.112 68.8071 25.792C69.0098 25.472 69.2711 25.216 69.5911 25.024C69.9111 24.8213 70.2685 24.72 70.6631 24.72H75.7991C76.2045 24.72 76.5671 24.8213 76.8871 25.024C77.2071 25.216 77.4631 25.472 77.6551 25.792C77.8471 26.112 77.9431 26.4693 77.9431 26.864V30.32H70.4231V31.792C70.4231 31.8773 70.4498 31.952 70.5031 32.016C70.5671 32.0693 70.6418 32.096 70.7271 32.096H77.9431V34H70.6631ZM70.4231 28.576H76.0391V26.928C76.0391 26.8427 76.0071 26.7733 75.9431 26.72C75.8898 26.656 75.8205 26.624 75.7351 26.624H70.7271C70.6418 26.624 70.5671 26.656 70.5031 26.72C70.4498 26.7733 70.4231 26.8427 70.4231 26.928V28.576ZM82.4111 34L78.7631 24.72H80.7951L83.1791 30.528L85.7071 24.72H87.7711L90.4591 30.56L92.6671 24.72H94.7151L91.2111 34H89.7071L86.7471 27.456L83.9311 34H82.4111ZM100.881 34V24.64C100.881 24.2453 100.977 23.8827 101.169 23.552C101.361 23.2213 101.622 22.96 101.953 22.768C102.284 22.576 102.646 22.48 103.041 22.48H110.241C110.636 22.48 110.993 22.576 111.313 22.768C111.644 22.96 111.905 23.2213 112.097 23.552C112.3 23.8827 112.401 24.2453 112.401 24.64V34H110.465V30.048H102.801V34H100.881ZM102.801 28.128H110.465V24.704C110.465 24.6187 110.433 24.5493 110.369 24.496C110.316 24.4427 110.252 24.416 110.177 24.416H103.089C103.014 24.416 102.945 24.4427 102.881 24.496C102.828 24.5493 102.801 24.6187 102.801 24.704V28.128ZM116.304 34C115.909 34 115.552 33.904 115.232 33.712C114.912 33.5093 114.651 33.248 114.448 32.928C114.256 32.608 114.16 32.2507 114.16 31.856V21.664H116.08V31.792C116.08 31.8773 116.107 31.952 116.16 32.016C116.224 32.0693 116.293 32.096 116.368 32.096H118.096V34H116.304ZM121.507 34C121.113 34 120.755 33.904 120.435 33.712C120.115 33.5093 119.854 33.248 119.651 32.928C119.459 32.608 119.363 32.2507 119.363 31.856V21.664H121.283V31.792C121.283 31.8773 121.31 31.952 121.363 32.016C121.427 32.0693 121.497 32.096 121.571 32.096H123.299V34H121.507Z" fill="#FAFAFA"/>
</svg>
