<svg width="313" height="31" viewBox="0 0 313 31" fill="none" xmlns="http://www.w3.org/2000/svg">
<g clip-path="url(#clip0_90_6662)">
<path d="M21.832 7.76402C21.8478 6.61631 21.0206 5.50401 19.5323 4.67178L14.6751 1.95573C13.1868 1.1235 11.1593 0.639528 9.0387 0.61028C4.62271 0.549373 1.01617 2.43745 0.983209 4.82743C0.967379 5.97514 1.79464 7.08744 3.28295 7.91967L6.6427 9.79837C6.64277 9.79837 6.64263 9.79841 6.6427 9.79837L16.4319 15.2723C17.1427 15.6698 17.5378 16.201 17.5302 16.7491C17.5176 17.6668 16.4017 18.4296 14.8687 18.6782L17.9582 20.4058C20.1928 19.6679 21.6861 18.3407 21.7073 16.8067C21.7231 15.659 20.8959 14.5467 19.4076 13.7145L6.2586 6.36188C5.54779 5.96441 5.15271 5.43318 5.16027 4.88504C5.17602 3.7436 6.89845 2.84187 9.00752 2.87096C10.0203 2.88493 10.9886 3.11607 11.6994 3.51354L16.5566 6.22957C17.2674 6.62704 17.6625 7.15827 17.6549 7.70641C17.6423 8.62413 16.5264 9.38686 14.9934 9.63551L18.0828 11.3631C20.3175 10.6253 21.8109 9.29804 21.832 7.76402Z" fill="url(#paint0_linear_90_6662)"/>
<path d="M6.13318 15.4046C5.42236 15.0071 5.02729 14.4759 5.03485 13.9277C5.04751 13.0102 6.16307 12.2475 7.69581 11.9987L4.60643 10.2712C2.3721 11.0091 0.878943 12.3362 0.857788 13.8701C0.841958 15.0178 1.66922 16.1301 3.15752 16.9624L16.3065 24.315C17.0173 24.7124 17.4124 25.2437 17.4048 25.7918C17.3891 26.9333 15.6666 27.835 13.5576 27.8059C12.5448 27.7919 11.5764 27.5608 10.8656 27.1633L6.00846 24.4473C5.29764 24.0498 4.90257 23.5186 4.91013 22.9704C4.92279 22.0528 6.03856 21.2901 7.57144 21.0414L4.48199 19.3139C2.24745 20.0517 0.754225 21.3789 0.733069 22.9128C0.717239 24.0605 1.5445 25.1728 3.03281 26.0051L7.88999 28.7211C9.37829 29.5533 11.4057 30.0373 13.5264 30.0666C17.9423 30.1275 21.5489 28.2394 21.5819 25.8494C21.5977 24.7017 20.7705 23.5894 19.2822 22.7572L6.13318 15.4046Z" fill="url(#paint1_linear_90_6662)"/>
</g>
<path d="M296.826 27.0239C295.954 27.0239 295.161 26.8057 294.45 26.3694C293.738 25.9331 293.164 25.3589 292.727 24.647C292.291 23.9352 292.073 23.1429 292.073 22.2702V11.7985C292.073 10.9259 292.291 10.1336 292.727 9.42172C293.164 8.70982 293.738 8.13571 294.45 7.69939C295.161 7.26307 295.954 7.04491 296.826 7.04491H307.608C308.481 7.04491 309.273 7.26307 309.985 7.69939C310.72 8.13571 311.294 8.70982 311.707 9.42172C312.144 10.1336 312.362 10.9259 312.362 11.7985V19.3078H296.585V22.098C296.585 22.2128 296.62 22.3162 296.689 22.408C296.78 22.4769 296.884 22.5114 296.999 22.5114H312.362V27.0239H296.826ZM296.585 15.2432H307.849V11.9708C307.849 11.8559 307.803 11.7641 307.711 11.6952C307.643 11.6033 307.551 11.5574 307.436 11.5574H296.999C296.884 11.5574 296.78 11.6033 296.689 11.6952C296.62 11.7641 296.585 11.8559 296.585 11.9708V15.2432Z" fill="url(#paint2_linear_90_6662)"/>
<path d="M265.61 27.0239V11.7985C265.61 10.9259 265.829 10.1336 266.265 9.42172C266.701 8.70982 267.275 8.13571 267.987 7.69939C268.722 7.26307 269.514 7.04491 270.364 7.04491H281.456V11.5574H270.536C270.421 11.5574 270.318 11.6033 270.226 11.6952C270.157 11.7641 270.123 11.8559 270.123 11.9708V27.0239H265.61Z" fill="url(#paint3_linear_90_6662)"/>
<path d="M238.95 27.0239C238.078 27.0239 237.285 26.8057 236.574 26.3694C235.862 25.9331 235.288 25.3589 234.851 24.647C234.415 23.9352 234.197 23.1429 234.197 22.2702V11.7985C234.197 10.9259 234.415 10.1336 234.851 9.42172C235.288 8.70982 235.862 8.13571 236.574 7.69939C237.285 7.26307 238.078 7.04491 238.95 7.04491H249.732C250.605 7.04491 251.397 7.26307 252.109 7.69939C252.844 8.13571 253.418 8.70982 253.831 9.42172C254.268 10.1336 254.486 10.9259 254.486 11.7985V22.2702C254.486 23.1429 254.268 23.9352 253.831 24.647C253.418 25.3589 252.855 25.9331 252.143 26.3694C251.431 26.8057 250.628 27.0239 249.732 27.0239H238.95ZM239.123 22.5114H249.56C249.675 22.5114 249.767 22.4769 249.835 22.408C249.927 22.3162 249.973 22.2128 249.973 22.098V11.9708C249.973 11.8559 249.927 11.7641 249.835 11.6952C249.767 11.6033 249.675 11.5574 249.56 11.5574H239.123C239.008 11.5574 238.904 11.6033 238.813 11.6952C238.744 11.7641 238.709 11.8559 238.709 11.9708V22.098C238.709 22.2128 238.744 22.3162 238.813 22.408C238.904 22.4769 239.008 22.5114 239.123 22.5114Z" fill="url(#paint4_linear_90_6662)"/>
<path d="M215.65 27.0237C214.777 27.0237 213.985 26.8056 213.273 26.3692C212.561 25.9329 211.987 25.3588 211.55 24.6469C211.114 23.935 210.896 23.1428 210.896 22.2701V0.913306H215.408V7.04477H223.193V11.5573H215.408V22.0979C215.408 22.2127 215.443 22.316 215.512 22.4079C215.604 22.4768 215.707 22.5112 215.822 22.5112H223.193V27.0237H215.65Z" fill="url(#paint5_linear_90_6662)"/>
<path d="M183.594 27.0239C182.722 27.0239 181.93 26.8057 181.218 26.3694C180.506 25.9331 179.932 25.3589 179.495 24.647C179.059 23.9352 178.841 23.1429 178.841 22.2702V21.5124H183.353V22.098C183.353 22.2128 183.388 22.3162 183.457 22.408C183.549 22.4769 183.652 22.5114 183.767 22.5114H194.204C194.319 22.5114 194.411 22.4769 194.48 22.408C194.571 22.3162 194.617 22.2128 194.617 22.098V19.7212C194.617 19.6064 194.571 19.5145 194.48 19.4456C194.411 19.3538 194.319 19.3078 194.204 19.3078H183.594C182.722 19.3078 181.93 19.0897 181.218 18.6534C180.506 18.217 179.932 17.6429 179.495 16.931C179.059 16.2192 178.841 15.4269 178.841 14.5542V11.7985C178.841 10.9259 179.059 10.1336 179.495 9.42172C179.932 8.70982 180.506 8.13571 181.218 7.69939C181.93 7.26307 182.722 7.04491 183.594 7.04491H194.376C195.272 7.04491 196.076 7.26307 196.787 7.69939C197.499 8.13571 198.073 8.70982 198.51 9.42172C198.946 10.1336 199.164 10.9259 199.164 11.7985V12.5563H194.617V11.9708C194.617 11.8559 194.571 11.7641 194.48 11.6952C194.411 11.6033 194.319 11.5574 194.204 11.5574H183.767C183.652 11.5574 183.549 11.6033 183.457 11.6952C183.388 11.7641 183.353 11.8559 183.353 11.9708V14.3476C183.353 14.4624 183.388 14.5657 183.457 14.6576C183.549 14.7265 183.652 14.7609 183.767 14.7609H194.376C195.272 14.7609 196.076 14.9791 196.787 15.4154C197.499 15.8517 198.073 16.4258 198.51 17.1377C198.946 17.8496 199.164 18.6419 199.164 19.5145V22.2702C199.164 23.1429 198.946 23.9352 198.51 24.647C198.073 25.3589 197.499 25.9331 196.787 26.3694C196.076 26.8057 195.272 27.0239 194.376 27.0239H183.594Z" fill="url(#paint6_linear_90_6662)"/>
<path d="M147.268 27.0239V7.04491H162.803C163.676 7.04491 164.468 7.26307 165.18 7.69939C165.915 8.13571 166.489 8.70982 166.902 9.42172C167.338 10.1336 167.557 10.9259 167.557 11.7985V27.0239H163.044V11.9708C163.044 11.8559 162.998 11.7641 162.906 11.6952C162.837 11.6033 162.746 11.5574 162.631 11.5574H152.193C152.079 11.5574 151.975 11.6033 151.883 11.6952C151.815 11.7641 151.78 11.8559 151.78 11.9708V27.0239H147.268Z" fill="url(#paint7_linear_90_6662)"/>
<path d="M130.487 27.0238V7.04483H135V27.0238H130.487ZM130.487 5.04693V0.5H135V5.04693H130.487Z" fill="url(#paint8_linear_90_6662)"/>
<path d="M103.057 27.0239C102.184 27.0239 101.38 26.8057 100.646 26.3694C99.9337 25.9331 99.3596 25.3589 98.9233 24.647C98.5099 23.9352 98.3032 23.1429 98.3032 22.2702V14.7609H114.08V11.9708C114.08 11.8559 114.034 11.7641 113.942 11.6952C113.873 11.6033 113.781 11.5574 113.666 11.5574H98.3032V7.04491H113.839C114.711 7.04491 115.503 7.26307 116.215 7.69939C116.95 8.13571 117.524 8.70982 117.938 9.42172C118.374 10.1336 118.592 10.9259 118.592 11.7985V27.0239H103.057ZM103.229 22.5114H114.08V18.8256H102.816V22.098C102.816 22.2128 102.85 22.3162 102.919 22.408C103.011 22.4769 103.114 22.5114 103.229 22.5114Z" fill="url(#paint9_linear_90_6662)"/>
<path d="M67.061 27.0238V0.5H71.5735V7.04483H82.5964C83.469 7.04483 84.2613 7.26299 84.9732 7.69931C85.6851 8.13563 86.2592 8.70974 86.6955 9.42163C87.1318 10.1335 87.35 10.9258 87.35 11.7984V27.0238H82.8375V11.9707C82.8375 11.8558 82.7916 11.764 82.6997 11.6951C82.6308 11.6032 82.539 11.5573 82.4242 11.5573H71.9869C71.8721 11.5573 71.7687 11.6032 71.6769 11.6951C71.608 11.764 71.5735 11.8558 71.5735 11.9707V27.0238H67.061Z" fill="url(#paint10_linear_90_6662)"/>
<path d="M35.3281 27.0237C34.4555 27.0237 33.6517 26.8055 32.9168 26.3692C32.205 25.9329 31.6308 25.3588 31.1945 24.6469C30.7582 23.912 30.54 23.1083 30.54 22.2356V7.01031C30.54 6.13767 30.7582 5.3454 31.1945 4.6335C31.6308 3.89865 32.205 3.31306 32.9168 2.87674C33.6517 2.44041 34.4555 2.22225 35.3281 2.22225H55.2726V6.80363H36.2926C35.9252 6.80363 35.6266 6.90697 35.397 7.11365C35.1903 7.32033 35.087 7.61886 35.087 8.00926V21.2367C35.087 21.6041 35.1903 21.9027 35.397 22.1323C35.6266 22.339 35.9252 22.4423 36.2926 22.4423H55.2726V27.0237H35.3281Z" fill="url(#paint11_linear_90_6662)"/>
<defs>
<linearGradient id="paint0_linear_90_6662" x1="11.4856" y1="0.644028" x2="11.2143" y2="20.3128" gradientUnits="userSpaceOnUse">
<stop stop-color="#008080"/>
<stop offset="1" stop-color="#69F5F5"/>
</linearGradient>
<linearGradient id="paint1_linear_90_6662" x1="11.3508" y1="10.3642" x2="11.0795" y2="30.0328" gradientUnits="userSpaceOnUse">
<stop stop-color="#008080"/>
<stop offset="1" stop-color="#69F5F5"/>
</linearGradient>
<linearGradient id="paint2_linear_90_6662" x1="292.073" y1="17.0344" x2="312.362" y2="17.0344" gradientUnits="userSpaceOnUse">
<stop stop-color="#008080"/>
<stop offset="1" stop-color="#69F5F5"/>
</linearGradient>
<linearGradient id="paint3_linear_90_6662" x1="265.61" y1="17.0344" x2="281.456" y2="17.0344" gradientUnits="userSpaceOnUse">
<stop stop-color="#008080"/>
<stop offset="1" stop-color="#69F5F5"/>
</linearGradient>
<linearGradient id="paint4_linear_90_6662" x1="234.197" y1="17.0344" x2="254.486" y2="17.0344" gradientUnits="userSpaceOnUse">
<stop stop-color="#008080"/>
<stop offset="1" stop-color="#69F5F5"/>
</linearGradient>
<linearGradient id="paint5_linear_90_6662" x1="210.896" y1="13.9685" x2="223.193" y2="13.9685" gradientUnits="userSpaceOnUse">
<stop stop-color="#008080"/>
<stop offset="1" stop-color="#69F5F5"/>
</linearGradient>
<linearGradient id="paint6_linear_90_6662" x1="178.841" y1="17.0344" x2="199.164" y2="17.0344" gradientUnits="userSpaceOnUse">
<stop stop-color="#008080"/>
<stop offset="1" stop-color="#69F5F5"/>
</linearGradient>
<linearGradient id="paint7_linear_90_6662" x1="147.268" y1="17.0344" x2="167.557" y2="17.0344" gradientUnits="userSpaceOnUse">
<stop stop-color="#008080"/>
<stop offset="1" stop-color="#69F5F5"/>
</linearGradient>
<linearGradient id="paint8_linear_90_6662" x1="130.487" y1="13.7619" x2="135" y2="13.7619" gradientUnits="userSpaceOnUse">
<stop stop-color="#008080"/>
<stop offset="1" stop-color="#69F5F5"/>
</linearGradient>
<linearGradient id="paint9_linear_90_6662" x1="98.3032" y1="17.0344" x2="118.592" y2="17.0344" gradientUnits="userSpaceOnUse">
<stop stop-color="#008080"/>
<stop offset="1" stop-color="#69F5F5"/>
</linearGradient>
<linearGradient id="paint10_linear_90_6662" x1="67.061" y1="13.7619" x2="87.35" y2="13.7619" gradientUnits="userSpaceOnUse">
<stop stop-color="#008080"/>
<stop offset="1" stop-color="#69F5F5"/>
</linearGradient>
<linearGradient id="paint11_linear_90_6662" x1="30.54" y1="14.623" x2="55.2726" y2="14.623" gradientUnits="userSpaceOnUse">
<stop stop-color="#008080"/>
<stop offset="1" stop-color="#69F5F5"/>
</linearGradient>
<clipPath id="clip0_90_6662">
<rect width="29.3916" height="20.8873" fill="white" transform="translate(21.9282 0.788055) rotate(90.7902)"/>
</clipPath>
</defs>
</svg>
