<svg width="43" height="44" viewBox="0 0 43 44" fill="none" xmlns="http://www.w3.org/2000/svg">
<g clip-path="url(#clip0_95_8868)">
<path d="M12.4488 34.2408C14.3999 34.2408 15.9815 32.6591 15.9815 30.7081C15.9815 28.757 14.3999 27.1753 12.4488 27.1753C10.4977 27.1753 8.91602 28.757 8.91602 30.7081C8.91602 32.6591 10.4977 34.2408 12.4488 34.2408Z" stroke="#FEFEFE" stroke-width="2.11966" stroke-linecap="round" stroke-linejoin="round"/>
<path d="M30.1148 34.2408C32.0659 34.2408 33.6476 32.6591 33.6476 30.7081C33.6476 28.757 32.0659 27.1753 30.1148 27.1753C28.1637 27.1753 26.582 28.757 26.582 30.7081C26.582 32.6591 28.1637 34.2408 30.1148 34.2408Z" stroke="#FEFEFE" stroke-width="2.11966" stroke-linecap="round" stroke-linejoin="round"/>
<path d="M8.91633 30.7083H7.50323C6.33257 30.7083 5.38357 29.7593 5.38357 28.5886V23.6428M3.61719 9.51172H20.9277C22.0984 9.51172 23.0474 10.4607 23.0474 11.6314V30.7083M15.9819 30.7083H26.5801M33.6457 30.7083H35.0588C36.2294 30.7083 37.1784 29.7593 37.1784 28.5886V20.11M37.1784 20.11H23.0474M37.1784 20.11L32.4967 12.3072C32.1137 11.6687 31.4237 11.2781 30.6792 11.2781H23.0474" stroke="#FEFEFE" stroke-width="2.11966" stroke-linecap="round" stroke-linejoin="round"/>
<path d="M8.56477 30.3548H7.15166C5.98101 30.3548 5.03201 29.4058 5.03201 28.2351V23.2892M3.26562 9.1582H20.5762C21.7468 9.1582 22.6958 10.1072 22.6958 11.2779V30.3548M15.9836 30.3548H26.2286M34.0006 30.3548H34.7072C35.8779 30.3548 36.8269 29.4058 36.8269 28.2351V19.7565M36.8269 19.7565H22.6958M36.8269 19.7565L32.1452 11.9537C31.7621 11.3152 31.0721 10.9246 30.3276 10.9246H22.6958" stroke="#FEFEFE" stroke-width="2.11966" stroke-linecap="round" stroke-linejoin="round"/>
<path d="M5.38477 13.2051H12.4503" stroke="#FEFEFE" stroke-width="2.11966" stroke-linecap="round" stroke-linejoin="round"/>
<path d="M2.01172 17.0591H9.07724" stroke="#FEFEFE" stroke-width="2.11966" stroke-linecap="round" stroke-linejoin="round"/>
<path d="M5.38477 20.9126H12.4503" stroke="#FEFEFE" stroke-width="2.11966" stroke-linecap="round" stroke-linejoin="round"/>
</g>
<defs>
<clipPath id="clip0_95_8868">
<rect width="42.3931" height="42.3931" fill="white" transform="translate(0.0859375 0.679688)"/>
</clipPath>
</defs>
</svg>
